<svg version="1.1" viewBox="0.0 0.0 745.7664041994751 720.0" fill="none" stroke="none" stroke-linecap="square" stroke-miterlimit="10" xmlns:xlink="http://www.w3.org/1999/xlink" xmlns="http://www.w3.org/2000/svg">
<clipPath id="p.0"><path d="m0 0l745.7664 0l0 720.0l-745.7664 0l0 -720.0z" clip-rule="nonzero"/></clipPath>
<g clip-path="url(#p.0)">
<path fill="#ffca4d" d="M 100,188 L 367,18 L 167,244 Z" fill-rule="evenodd"/>
<path fill="#ffde52" d="M 167,244 L 527,243 L 367,18 Z" fill-rule="evenodd"/>
<path fill="#ffca4d" d="M 367,18 L 527,243 L 664,186 Z" fill-rule="evenodd"/>
<path fill="#fcb146" d="M 100,188 L 167,244 L 85,514 Z" fill-rule="evenodd"/>
<path fill="#e3a043" d="M 167,244 L 350,544 L 85,514 Z" fill-rule="evenodd"/>
<path fill="#fcb146" d="M 664,186 L 527,243 L 650,511 Z" fill-rule="evenodd"/>
<path fill="#e3a043" d="M 527,243 L 650,511 L 350,544 Z" fill-rule="evenodd"/>
<path fill="#fcb146" d="M 167,244 L 527,243 L 350,544 Z" fill-rule="evenodd"/>
<path fill="#cc8f3e" d="M 85,514 L 350,544 L 381,694 Z" fill-rule="evenodd"/>
<path fill="#b17d39" d="M 350,544 L 381,694 L 650,511 Z" fill-rule="evenodd"/>
</g></svg>
