<svg width="500" height="500" xmlns:xlink="http://www.w3.org/1999/xlink" xmlns="http://www.w3.org/2000/svg"><defs><radialGradient id="d" cx="172" cy="197" r="200" fx="172" fy="197" xlink:href="#a" gradientUnits="userSpaceOnUse" gradientTransform="matrix(1 .75 -.75 1 150 -150)"/><radialGradient id="f" cx="172" cy="197" r="200" fx="172" fy="197" xlink:href="#b" gradientUnits="userSpaceOnUse" gradientTransform="matrix(.65705 .36523 -.49279 .48697 74 28)"/><radialGradient id="e" cx="172" cy="197" r="200" fx="172" fy="197" xlink:href="#b" gradientUnits="userSpaceOnUse" gradientTransform="matrix(.93501 .61714 -.70126 .82286 144 -60)"/><radialGradient id="g" cx="172" cy="197" r="200" fx="172" fy="197" xlink:href="#c" gradientUnits="userSpaceOnUse" gradientTransform="matrix(1 .75 -.75 1 149 -150)"/><linearGradient id="c"><stop offset="0" stop-color="#fff" stop-opacity="0"/><stop offset="1" stop-color="#fff" stop-opacity="0"/></linearGradient><linearGradient id="b"><stop offset="0" stop-color="#fff"/><stop offset="1" stop-color="#f4f4ff"/></linearGradient><linearGradient id="a"><stop offset="0" stop-color="#fff"/><stop offset="1" stop-color="#069"/></linearGradient></defs><circle cx="250" cy="250" r="200" fill="url(#d)" opacity=".8"/><ellipse cx="237.9" cy="269.3" rx="187" ry="164.6" transform="matrix(.98264 -.1855 -.00275 1 0 0)" opacity=".1" fill="url(#e)"/><ellipse cx="140" cy="222.3" rx="131.4" ry="97.4" transform="matrix(.92403 -.38231 .2811 .95968 0 0)" opacity=".1" fill="url(#f)"/><ellipse cx="74.8" cy="191.3" rx="66.5" ry="46.6" transform="matrix(.83317 -.55301 .54608 .83773 0 0)" opacity=".2" fill="#fff"/><ellipse cx="-7.3" cy="-195.1" rx="63.5" ry="24.8" transform="matrix(-.65766 .75332 -.63194 -.77502 0 0)" opacity=".4" fill="#fff"/><ellipse cx="-177.6" cy="498.4" rx="18" ry="8.3" transform="matrix(.34795 -.93751 .95501 .29657 0 0)" opacity=".1" fill="#fff"/><ellipse cx="98.4" cy="494.2" rx="27.8" ry="12.3" transform="matrix(.95246 -.30467 .39735 .91767 0 0)" opacity=".1" fill="#fff"/><ellipse cx="245.9" cy="-302.4" rx="27.3" ry="15.3" transform="matrix(-.53138 .84713 -.99851 -.0545 0 0)" opacity=".5" fill="#fff"/><ellipse cx="-238.6" cy="-28.6" rx="26.6" ry="27.1" transform="matrix(-.3944 -.91894 .51485 -.85728 0 0)" opacity=".3" fill="#fff"/><ellipse cx="357.1" cy="-57.6" rx="7.1" ry="8.8" transform="matrix(.41454 .91003 -.8548 .51895 0 0)" opacity=".3" fill="#fff"/><ellipse cx="-190.2" cy="-248.7" rx="5.3" ry="6.5" transform="matrix(-.95207 -.30589 .15588 -.98778 0 0)" opacity=".4" fill="#fff"/><ellipse cx="-151.1" cy="223.4" rx="7" ry="9.6" transform="matrix(-.36042 -.93279 .97077 -.24002 0 0)" opacity=".5" fill="#fff"/><circle cx="248.9" cy="250.1" r="200" fill="url(#g)" stroke="#314181" stroke-width="5"/></svg>